<svg xmlns="http://www.w3.org/2000/svg" xmlns:svg="http://www.w3.org/2000/svg" id="svg5" width="200mm" height="200mm" version="1.1" viewBox="0 0 200 200"><g id="layer1"><rect style="fill:#fff;fill-opacity:1;stroke:none;stroke-width:.132292;stroke-miterlimit:4;stroke-dasharray:none;stroke-opacity:1" id="rect46705" width="200" height="200" x="0" y="0"/><g id="g46681" transform="matrix(1.3906786,0,0,1.3906786,-142.14495,-100.63365)"><path id="path18138" d="m 183.14761,97.845263 a 33.725273,33.725273 0 0 0 -33.72507,33.725077 v 6.52776 51.13177 c 0,3.61621 2.91103,6.52776 6.52725,6.52776 h 54.39564 c 3.61622,0 6.52725,-2.91155 6.52725,-6.52776 V 138.0981 131.57034 A 33.725273,33.725273 0 0 0 183.14761,97.845263 Z" style="fill:#333;fill-opacity:1;stroke:none;stroke-width:5.965"/><rect style="fill:#333;fill-opacity:1;stroke:none;stroke-width:2.62265" id="rect22924" width="13.055" height="10.001" x="170.093" y="97.845" ry="0"/><g id="g39947" transform="translate(200.0102,90.77386)"><rect style="fill:#b3b3b3;fill-opacity:1;stroke:none;stroke-width:5.04815" id="rect31373" width="20.386" height="3.462" x="-31.982" y="2.009"/><rect style="fill:#b3b3b3;fill-opacity:1;stroke:none;stroke-width:3.25241" id="rect31455" width="8.462" height="3.462" x="2.009" y="28.52" transform="rotate(90)"/><rect style="fill:#b3b3b3;fill-opacity:1;stroke:none;stroke-width:3.25241" id="rect31457" width="8.462" height="3.462" x="2.009" y="11.596" transform="rotate(90)"/></g><rect style="fill:#666;fill-opacity:1;stroke:none;stroke-width:1.87452" id="rect31459" width="8.462" height="1.15" x="92.783" y="-189.564" transform="rotate(90)"/><g id="g43308" transform="translate(200.0102,90.77386)"><rect style="fill:#b3b3b3;fill-opacity:1;stroke:none;stroke-width:5.04815" id="rect43302" width="20.386" height="3.462" x="-31.982" y="2.009"/><rect style="fill:#b3b3b3;fill-opacity:1;stroke:none;stroke-width:3.25241" id="rect43304" width="8.462" height="3.462" x="2.009" y="28.52" transform="rotate(90)"/><rect style="fill:#b3b3b3;fill-opacity:1;stroke:none;stroke-width:3.25241" id="rect43306" width="8.462" height="3.462" x="2.009" y="11.596" transform="rotate(90)"/></g><path id="path12996" d="m 170.09265,97.845263 a 33.725273,33.725273 0 0 0 -33.72508,33.725077 v 6.52776 51.13177 c 0,3.61621 2.91103,6.52776 6.52725,6.52776 h 54.39565 c 3.61622,0 6.52725,-2.91155 6.52725,-6.52776 V 138.0981 131.57034 A 33.725273,33.725273 0 0 0 170.09265,97.845263 Z" style="fill:#999;fill-opacity:1;stroke:none;stroke-width:5.965"/><rect style="fill:#666;fill-opacity:1;stroke:none;stroke-width:1.62411" id="rect23028" width="5" height="17.679" x="198.817" y="143.868"/><rect style="fill:#b3b3b3;fill-opacity:1;stroke:none;stroke-width:5.965" id="rect23110" width="67.45" height="17.679" x="131.367" y="143.868"/><rect style="fill:#666;fill-opacity:1;stroke:none;stroke-width:1.87452" id="rect43310" width="8.462" height="1.15" x="92.783" y="-189.564" transform="rotate(90)"/><path style="fill:#b3b3b3;fill-opacity:1;stroke:none;stroke-width:5.965" id="path46106" d="m 164.22685,165.84008 a 1.7826568,1.7826568 0 0 1 -1.78232,1.78284 v 26.35187 a 1.7826568,1.7826568 0 0 1 1.78232,1.78284 h 11.66544 a 1.7826568,1.7826568 0 0 1 1.78284,-1.78284 v -26.35187 a 1.7826568,1.7826568 0 0 1 -1.78284,-1.78284 z"/><text style="font-style:normal;font-variant:normal;font-weight:400;font-stretch:normal;font-size:7.5812px;line-height:1.25;font-family:sans-serif;-inkscape-font-specification:sans-serif;letter-spacing:0;word-spacing:0;fill:#000;fill-opacity:1;stroke:none;stroke-width:.118456" id="text45760" x="143.385" y="155.463" xml:space="preserve"><tspan id="tspan45758" x="143.385" y="155.463" style="stroke-width:.118456">TRAVELLER</tspan></text><rect style="fill:none;fill-opacity:1;stroke:#fff;stroke-width:.109457;stroke-miterlimit:4;stroke-dasharray:none;stroke-opacity:1" id="rect46314" width="12.602" height="21.803" x="163.759" y="169.897"/></g></g></svg>